# Blender 4.2.0
# www.blender.org
o Triangular_Straight
v -1.650000 0.000000 1.650000
v -1.350000 0.000000 1.650000
v -1.650000 0.000000 -1.650000
v 1.650000 -0.000000 -1.650000
v 1.650000 -0.000000 -1.350000
v -1.650000 12.000000 1.650000
v -1.350000 12.000000 1.650000
v -1.650000 12.000000 -1.650000
v 1.650000 12.000000 -1.650000
v 1.650000 12.000000 -1.350000
vn -0.0000 -1.0000 -0.0000
vn -0.0000 1.0000 -0.0000
vn -0.0000 -0.0000 -1.0000
vn 1.0000 -0.0000 -0.0000
vn 0.7071 -0.0000 0.7071
vn -0.0000 -0.0000 1.0000
vn -1.0000 -0.0000 -0.0000
vt 0.000000 0.000000
s 0
f 5/1/1 2/1/1 3/1/1
f 7/1/2 10/1/2 8/1/2
f 4/1/3 3/1/3 8/1/3
f 5/1/4 4/1/4 9/1/4
f 2/1/5 5/1/5 10/1/5
f 1/1/6 2/1/6 7/1/6
f 3/1/7 1/1/7 6/1/7
f 4/1/1 5/1/1 3/1/1
f 3/1/1 2/1/1 1/1/1
f 6/1/2 7/1/2 8/1/2
f 8/1/2 10/1/2 9/1/2
f 4/1/3 8/1/3 9/1/3
f 5/1/4 9/1/4 10/1/4
f 2/1/5 10/1/5 7/1/5
f 1/1/6 7/1/6 6/1/6
f 3/1/7 6/1/7 8/1/7
